<svg width="440" height="956" viewBox="0 0 440 956" fill="none" xmlns="http://www.w3.org/2000/svg">
<rect width="440" height="956" rx="32" fill="url(#paint0_linear_1_2)"/>
<path d="M87.6035 461.592C87.3301 461.533 87.1738 461.348 87.1348 461.035L87.5449 455.645C87.5645 455.176 87.7402 454.941 88.0723 454.941L109.518 455.439L109.488 453.887C109.488 453.438 109.703 453.184 110.133 453.125L114.762 452.715C115.094 452.715 115.299 452.939 115.377 453.389L116.959 465.693C116.959 466.006 116.734 466.182 116.285 466.221L110.953 466.66C110.172 466.66 109.762 466.279 109.723 465.518L109.635 461.475L98.1211 461.152L97.916 475.098L113.033 475.039C113.385 475.039 113.561 475.225 113.561 475.596L113.355 480.342C113.316 480.791 113.053 481.016 112.564 481.016L97.8281 480.635L97.6523 493.76L105.211 493.32C105.621 493.32 105.846 493.535 105.885 493.965L106.207 499.121C106.188 499.375 106.148 499.551 106.09 499.648C106.031 499.746 105.895 499.795 105.68 499.795L88.1309 500.146C87.8965 500.107 87.7207 500.059 87.6035 500C87.5059 499.922 87.4473 499.766 87.4277 499.531L87.1055 494.199C87.1055 493.809 87.2812 493.594 87.6328 493.555L91.3242 493.73L91.5586 461.27L87.6035 461.592ZM123.194 500.41C122.92 500.41 122.783 500.176 122.783 499.707V495.283C122.783 494.912 122.94 494.727 123.252 494.727H126.768L127.002 474.248L122.256 473.75C121.905 473.711 121.729 473.496 121.729 473.105L122.373 468.271C122.451 467.92 122.686 467.715 123.076 467.656L132.481 466.689C132.696 466.689 132.832 466.748 132.891 466.865C132.949 466.963 132.989 467.129 133.008 467.363L133.389 472.695L133.301 494.727H136.641C136.953 494.727 137.11 494.912 137.11 495.283L136.582 499.121C136.543 499.355 136.475 499.512 136.377 499.59C136.299 499.648 136.133 499.688 135.879 499.707L123.194 500.41ZM132.305 460.098C131.934 460.391 131.436 460.586 130.811 460.684C130.186 460.781 129.434 460.83 128.555 460.83C127.696 460.83 127.031 460.781 126.563 460.684C126.114 460.586 125.752 460.41 125.479 460.156C125.03 459.688 124.805 458.857 124.805 457.666C124.805 456.475 124.864 455.625 124.981 455.117C125.117 454.59 125.362 454.18 125.713 453.887C126.319 453.379 127.305 453.125 128.672 453.125C130.059 453.125 130.987 453.164 131.455 453.242C131.924 453.301 132.295 453.457 132.569 453.711C133.037 454.121 133.272 454.941 133.272 456.172C133.272 457.402 133.203 458.291 133.067 458.838C132.93 459.385 132.676 459.805 132.305 460.098ZM156.411 499.824C155.473 499.883 154.086 499.912 152.25 499.912C150.434 499.912 148.95 499.727 147.797 499.355C146.665 498.984 145.727 498.389 144.985 497.568C143.52 495.947 142.788 493.34 142.788 489.746C142.788 487.422 142.817 485.205 142.875 483.096C142.954 480.967 143.012 479.082 143.051 477.441C143.11 475.781 143.168 474.141 143.227 472.52L139.331 472.227C138.94 472.207 138.745 471.943 138.745 471.436L138.715 468.066C138.715 467.637 138.93 467.422 139.36 467.422L143.461 467.334C143.5 466.318 143.54 465.352 143.579 464.434L143.813 460.01C143.872 458.975 143.95 458.389 144.047 458.252C144.145 458.096 144.321 457.998 144.575 457.959L150.024 457.314C150.434 457.314 150.639 457.529 150.639 457.959C150.639 458.584 150.532 460 150.317 462.207L149.877 467.158L161.362 466.836C161.791 466.836 162.006 467.07 162.006 467.539V472.314C162.006 472.705 161.791 472.91 161.362 472.93L149.497 472.432C149.165 477.002 148.999 480.986 148.999 484.385C148.999 487.783 149.067 489.98 149.204 490.977C149.36 491.973 149.633 492.744 150.024 493.291C150.688 494.229 152.104 494.697 154.272 494.697C154.897 494.697 155.463 494.678 155.971 494.639C155.913 493.955 155.883 493.447 155.883 493.115C155.883 492.764 156.069 492.559 156.44 492.5L161.333 491.914C161.743 491.914 161.948 492.139 161.948 492.588L162.065 500.029C162.065 500.361 161.918 500.557 161.625 500.615L157.29 501.318C156.84 501.279 156.586 501.094 156.528 500.762L156.411 499.824ZM186.522 473.545C184.042 473.545 181.21 474.561 178.026 476.592L178.378 494.141L181.571 493.789C181.903 493.789 182.069 493.955 182.069 494.287L181.512 498.828C181.434 499.258 181.219 499.473 180.868 499.473H168.651C168.339 499.473 168.182 499.238 168.182 498.77L168.768 494.287C168.846 493.877 169.061 493.672 169.413 493.672H171.903V474.307L167.421 474.189C167.03 474.189 166.835 473.955 166.835 473.486L167.362 468.418C167.401 468.086 167.635 467.881 168.065 467.803L176.18 466.602C176.532 466.602 176.708 466.826 176.708 467.275V472.344C180.731 468.32 184.686 466.309 188.573 466.309C193.026 466.309 195.682 468.428 196.542 472.666C196.815 474.072 196.952 475.391 196.952 476.621C196.952 477.832 196.942 478.857 196.923 479.697C196.903 480.518 196.874 481.426 196.835 482.422L196.776 485.469C196.737 486.543 196.698 487.617 196.659 488.691L196.542 491.797C196.503 492.793 196.464 493.711 196.425 494.551L199.794 494.404C200.204 494.404 200.409 494.639 200.409 495.107V499.414C200.409 499.648 200.35 499.805 200.233 499.883C200.135 499.941 199.969 499.98 199.735 500L191.239 500.645C190.809 500.645 190.594 500.43 190.594 500C190.653 497.871 190.682 495.869 190.682 493.994L190.741 489.102C190.741 487.715 190.741 486.416 190.741 485.205V479.844C190.741 477.422 190.536 475.879 190.126 475.215C189.716 474.531 189.237 474.082 188.69 473.867C188.143 473.652 187.421 473.545 186.522 473.545ZM228.03 499.824C225.53 500.449 222.356 500.762 218.509 500.762C214.583 500.762 211.731 499.551 209.954 497.129C208.099 494.609 207.171 490.615 207.171 485.146C207.171 479.404 207.962 475.117 209.544 472.285C211.341 469.16 214.212 467.256 218.157 466.572C219.524 466.338 221.048 466.221 222.728 466.221C226.341 466.221 228.968 467.109 230.608 468.887C232.249 470.664 233.069 473.379 233.069 477.031C233.069 479.414 232.649 481.25 231.81 482.539C231.536 482.949 231.165 483.418 230.696 483.945C230.228 484.453 229.358 484.912 228.089 485.322C226.839 485.713 225.403 486.016 223.782 486.23C221.263 486.543 217.796 486.699 213.382 486.699C213.636 490 214.446 492.246 215.813 493.438C216.849 494.375 218.645 494.844 221.204 494.844C223.606 494.844 225.999 494.639 228.382 494.229L228.47 492.705C228.489 492.471 228.538 492.314 228.616 492.236C228.714 492.158 228.88 492.09 229.114 492.031L233.333 491.094C233.763 491.094 234.007 491.279 234.065 491.65C234.124 491.982 234.183 492.637 234.241 493.613C234.3 494.57 234.358 495.4 234.417 496.104C234.476 496.807 234.524 497.48 234.563 498.125L234.681 499.766C234.7 500.254 234.71 500.664 234.71 500.996C234.71 501.582 234.28 501.924 233.421 502.021L228.558 502.607C228.128 502.607 227.913 502.393 227.913 501.963L228.03 499.824ZM225.306 480.635C225.813 480.186 226.116 479.668 226.214 479.082C226.331 478.477 226.39 477.773 226.39 476.973C226.39 476.152 226.311 475.43 226.155 474.805C226.019 474.18 225.774 473.643 225.423 473.193C224.661 472.256 223.421 471.787 221.702 471.787C218.382 471.787 216.165 472.627 215.052 474.307C213.997 475.869 213.411 478.564 213.294 482.393C220.11 482.295 224.114 481.709 225.306 480.635ZM263.591 475.01C258.318 473.213 254.597 472.314 252.429 472.314C250.085 472.314 248.503 472.891 247.683 474.043C247.351 474.492 247.185 475.049 247.185 475.713C247.185 476.377 247.263 476.953 247.419 477.441C247.575 477.93 247.859 478.359 248.269 478.73C249.089 479.512 250.671 480.088 253.015 480.459C255.359 480.83 257.4 481.24 259.138 481.689C260.896 482.119 262.302 482.686 263.357 483.389C264.431 484.072 265.193 484.941 265.642 485.996C266.111 487.051 266.345 488.408 266.345 490.068C266.345 491.709 266.101 493.164 265.613 494.434C265.124 495.703 264.431 496.777 263.532 497.656C261.716 499.395 259.196 500.264 255.974 500.264C253.767 500.264 251.228 499.99 248.357 499.443L248.855 501.875C248.855 502.188 248.63 502.363 248.181 502.402L243.142 502.842C242.4 502.842 241.989 502.461 241.911 501.699L241.091 492.998C241.091 492.646 241.325 492.432 241.794 492.354L246.364 491.533C246.696 491.533 246.902 491.758 246.98 492.207L247.331 494.141C250.163 494.59 252.497 494.814 254.333 494.814C256.169 494.814 257.536 494.434 258.435 493.672C259.333 492.891 259.782 491.865 259.782 490.596C259.782 489.404 259.304 488.555 258.347 488.047C257.507 487.578 255.857 487.158 253.396 486.787C250.954 486.396 248.943 485.977 247.361 485.527C245.779 485.059 244.48 484.443 243.464 483.682C241.53 482.236 240.564 479.785 240.564 476.328C240.564 473.32 241.472 470.918 243.288 469.121C245.222 467.227 247.927 466.279 251.404 466.279C253.454 466.279 255.818 466.963 258.493 468.33L257.937 466.016C257.937 465.547 258.142 465.293 258.552 465.254L264.353 464.785C264.665 464.785 264.821 465.01 264.821 465.459L264.177 474.395C264.157 474.805 263.962 475.01 263.591 475.01ZM293.351 475.01C288.078 473.213 284.357 472.314 282.189 472.314C279.845 472.314 278.263 472.891 277.443 474.043C277.111 474.492 276.945 475.049 276.945 475.713C276.945 476.377 277.023 476.953 277.179 477.441C277.335 477.93 277.619 478.359 278.029 478.73C278.849 479.512 280.431 480.088 282.775 480.459C285.119 480.83 287.16 481.24 288.898 481.689C290.656 482.119 292.062 482.686 293.117 483.389C294.191 484.072 294.953 484.941 295.402 485.996C295.871 487.051 296.105 488.408 296.105 490.068C296.105 491.709 295.861 493.164 295.372 494.434C294.884 495.703 294.191 496.777 293.292 497.656C291.476 499.395 288.956 500.264 285.734 500.264C283.527 500.264 280.988 499.99 278.117 499.443L278.615 501.875C278.615 502.188 278.39 502.363 277.941 502.402L272.902 502.842C272.16 502.842 271.749 502.461 271.671 501.699L270.851 492.998C270.851 492.646 271.085 492.432 271.554 492.354L276.124 491.533C276.456 491.533 276.662 491.758 276.74 492.207L277.091 494.141C279.923 494.59 282.257 494.814 284.093 494.814C285.929 494.814 287.296 494.434 288.195 493.672C289.093 492.891 289.542 491.865 289.542 490.596C289.542 489.404 289.064 488.555 288.107 488.047C287.267 487.578 285.617 487.158 283.156 486.787C280.714 486.396 278.703 485.977 277.121 485.527C275.539 485.059 274.24 484.443 273.224 483.682C271.29 482.236 270.324 479.785 270.324 476.328C270.324 473.32 271.232 470.918 273.048 469.121C274.982 467.227 277.687 466.279 281.164 466.279C283.214 466.279 285.578 466.963 288.253 468.33L287.697 466.016C287.697 465.547 287.902 465.293 288.312 465.254L294.113 464.785C294.425 464.785 294.581 465.01 294.581 465.459L293.937 474.395C293.917 474.805 293.722 475.01 293.351 475.01ZM317.598 499.854C317.187 499.854 316.982 499.648 316.982 499.238L317.275 493.76C317.314 493.369 317.539 493.174 317.949 493.174L321.172 493.672L332.949 477.676L322.344 461.475L318.535 461.826C318.125 461.826 317.92 461.592 317.92 461.123V455.879C317.92 455.488 318.144 455.293 318.594 455.293L332.978 454.971C333.252 454.971 333.408 455.029 333.447 455.146C333.486 455.244 333.506 455.4 333.506 455.615L333.652 460.889C333.613 461.143 333.555 461.309 333.476 461.387C333.398 461.465 333.242 461.504 333.008 461.504L330.342 461.357L335.82 472.578L341.562 461.68L339.541 461.562C339.228 461.543 339.062 461.377 339.043 461.064L338.721 455.938C338.779 455.547 338.994 455.332 339.365 455.293H352.168C352.441 455.332 352.598 455.566 352.637 455.996L352.344 461.65C352.305 462.061 352.09 462.266 351.699 462.266L348.184 462.061L338.164 476.855L349.326 493.555L353.252 493.496C353.545 493.496 353.691 493.73 353.691 494.199L353.135 499.062C353.096 499.277 353.037 499.424 352.959 499.502C352.881 499.58 352.715 499.619 352.461 499.619L339.394 499.795C339.023 499.756 338.828 499.58 338.809 499.268L338.457 494.316C338.496 493.906 338.721 493.701 339.131 493.701L341.475 493.672L335.322 481.396L328.115 493.701L331.133 493.467C331.445 493.467 331.601 493.701 331.601 494.17L331.543 499.297C331.504 499.551 331.435 499.717 331.338 499.795C331.26 499.854 331.113 499.893 330.898 499.912L317.598 499.854Z" fill="white"/>
<defs>
<linearGradient id="paint0_linear_1_2" x1="220" y1="0" x2="220" y2="956" gradientUnits="userSpaceOnUse">
<stop stop-color="#272F9F"/>
<stop offset="0.790685" stop-color="#0E1139"/>
</linearGradient>
</defs>
</svg>
